<svg width="554" height="554" viewBox="0 0 554 554" fill="none" xmlns="http://www.w3.org/2000/svg">
<path d="M8.78711 359.141L277.249 516.139L545.776 359.141L277.487 202.284L8.78711 359.141Z" fill="#E0E0E2"/>
<path d="M545.537 358.99V383.14L277.01 540.138V515.984L545.537 358.99Z" fill="#C6C5CB"/>
<path d="M9.02539 358.99V383.14L277.487 540.138V515.984L9.02539 358.99Z" fill="#D8D8DA"/>
<path d="M277.044 492.024L504.262 359.177V190.125L277.044 322.953V492.024Z" fill="#ACABB1"/>
<path d="M50.2959 190.125V359.177L277.451 492.024V322.953L50.2959 190.125Z" fill="#C6C5CB"/>
<path d="M29.4346 178.316V202.461L277.244 347.388L525.12 202.461V178.316L277.275 33.4138L29.4346 178.316Z" fill="#D8D8DA"/>
<path d="M29.4346 178.328L277.244 323.23L525.12 178.328L277.275 33.426L29.4346 178.328Z" fill="#E0E0E2"/>
<path d="M70.7461 178.322L277.247 299.094L483.816 178.322L277.28 57.5694L70.7461 178.322Z" fill="#898890"/>
<path d="M91.5568 190.496L277.421 81.7894L277.453 57.6596L70.9199 178.412L91.5568 190.496Z" fill="#C6C5CB"/>
<path d="M483.639 178.412L462.972 190.496L277.074 81.7894L277.106 57.6596" fill="#D8D8DA"/>
<path d="M215.506 479.874L215.493 310.827L91.6113 237.927V406.971L112.263 419.046L112.251 274.607L194.855 322.903V467.805L215.506 479.874Z" fill="#24A5FB"/>
<path d="M215.378 310.796L215.41 479.827L236.04 467.762V322.838L215.378 310.796Z" fill="#1387D5"/>
<path d="M112.325 419.062L132.979 407.004V286.705L112.312 274.621L112.325 419.062Z" fill="#1387D5"/>
<path d="M175.487 385.507C175.487 366.178 170.079 347.318 163.452 343.602C156.825 339.887 151.416 352.667 151.416 372V417.455L175.498 431.559L175.487 385.507Z" fill="#0098FF"/>
<path d="M266.992 375.957V413.194L245.932 401.113L245.952 366.37C245.954 363.597 247.403 361.031 249.764 359.625C252.124 358.219 255.043 358.181 257.437 359.527C263.334 362.838 266.992 369.129 266.992 375.957Z" fill="#EF9C29"/>
<path d="M81.434 267.457V304.694L60.374 292.613L60.3947 257.87C60.3961 255.097 61.8458 252.531 64.206 251.125C66.5662 249.718 69.4849 249.681 71.8796 251.026C77.7767 254.337 81.4349 260.628 81.434 267.457Z" fill="#EF9C29"/>
<path d="M308 360.415V397.652L329.06 385.341L329.039 350.827C329.038 348.054 327.588 345.488 325.228 344.082C322.868 342.675 319.949 342.638 317.554 343.983C311.658 347.296 308 353.587 308 360.415Z" fill="#EF9C29"/>
<path d="M361 332.419V369.656L382.06 357.345L382.039 322.827C382.038 320.054 380.588 317.488 378.228 316.082C375.868 314.675 372.949 314.638 370.554 315.983C364.657 319.296 360.999 325.589 361 332.419Z" fill="#EF9C29"/>
<path d="M412 303.417V340.655L433.06 328.344L433.039 293.827C433.038 291.054 431.588 288.488 429.228 287.082C426.868 285.675 423.949 285.638 421.554 286.983C415.657 290.296 411.999 296.588 412 303.417Z" fill="#EF9C29"/>
<path d="M463 273.414V310.651L484.06 298.346L484.039 263.827C484.038 261.054 482.588 258.488 480.228 257.082C477.868 255.675 474.949 255.638 472.554 256.983C466.658 260.296 463.001 266.586 463 273.414Z" fill="#EF9C29"/>
<path d="M118.521 423.072L108.144 428.858L170.008 465.205L180.265 459.173L118.521 423.072Z" fill="#E0E0E2"/>
<path d="M108.152 428.831V440.959L170.002 477.124L170.019 465.182L108.152 428.831Z" fill="#C6C5CB"/>
<path d="M108.25 441.081L97.8613 446.867L159.726 483.216L169.995 477.184L108.25 441.081Z" fill="#E0E0E2"/>
<path d="M97.8672 446.86V459.083L159.715 495.243L159.732 483.205L97.8672 446.86Z" fill="#C6C5CB"/>
<path d="M169.949 465.149L169.941 477.17L159.651 483.192L159.634 495.23L169.92 489.198L169.931 489.101V489.215L180.205 483.183V459.12L169.949 465.149Z" fill="#ACABB1"/>
<path d="M406.394 125.269V125.19C406.554 105.966 394.196 86.755 369.27 72.1786C319.33 42.9803 237.058 42.9803 186.442 72.1786C161.116 86.7882 148.339 106.058 148.155 125.328V184.971C147.966 204.218 160.341 223.467 185.331 238.078C235.335 267.313 317.602 267.313 368.159 238.078C393.423 223.467 406.185 204.223 406.397 184.971V184.953C406.394 184.948 406.394 125.28 406.394 125.269Z" fill="#C6C5CB"/>
<path d="M185.333 178.481C135.329 149.246 135.83 101.438 186.445 72.2361C237.06 43.0341 319.332 43.0378 369.273 72.2361C419.213 101.434 418.712 149.243 368.16 178.481C317.608 207.719 235.334 207.715 185.333 178.481Z" fill="#E0E0E2"/>
<path d="M390.207 123.15C390.145 140.09 378.971 157.054 356.748 169.896C312.53 195.474 240.55 195.474 196.808 169.896C175.307 157.326 164.484 140.841 164.299 124.279C164.278 123.986 164.278 123.693 164.278 123.417C164.188 60.3546 214.516 9.114 276.79 8.86626C339.064 8.61852 389.788 59.4571 390.186 122.519C390.207 122.732 390.207 122.941 390.207 123.15Z" fill="#1591E4"/>
<path d="M355.692 104.443C355.645 117.503 347.032 130.576 329.902 140.474C295.817 160.191 240.335 160.191 206.617 140.474C190.044 130.785 181.702 118.08 181.56 105.313C181.544 105.087 181.544 104.861 181.544 104.651C181.602 56.133 220.359 16.7787 268.27 16.588C316.182 16.3973 355.243 55.4418 355.678 103.958C355.692 104.122 355.692 104.283 355.692 104.443Z" fill="#24A5FB"/>
<path d="M277.021 323.084V347.247L524.898 202.331V178.18L277.021 323.084Z" fill="#C6C5CB"/>
</svg>
